<svg width="366" height="163" viewBox="0 0 366 163" fill="none" xmlns="http://www.w3.org/2000/svg">
<path d="M42.756 75.3827C42.372 76.0547 41.956 76.5507 41.508 76.8707C41.092 77.1587 40.564 77.3027 39.924 77.3027C39.252 77.3027 38.516 77.0627 37.716 76.5827C36.948 76.0707 36.02 75.5107 34.932 74.9027C33.844 74.2947 32.564 73.7507 31.092 73.2707C29.652 72.7587 27.94 72.5027 25.956 72.5027C24.164 72.5027 22.596 72.7267 21.252 73.1747C19.908 73.5907 18.772 74.1827 17.844 74.9507C16.948 75.7187 16.276 76.6467 15.828 77.7347C15.38 78.7907 15.156 79.9587 15.156 81.2387C15.156 82.8707 15.604 84.2307 16.5 85.3187C17.428 86.4067 18.644 87.3347 20.148 88.1027C21.652 88.8707 23.364 89.5587 25.284 90.1667C27.204 90.7747 29.172 91.4307 31.188 92.1347C33.204 92.8067 35.172 93.6067 37.092 94.5347C39.012 95.4307 40.724 96.5827 42.228 97.9907C43.732 99.3667 44.932 101.063 45.828 103.079C46.756 105.095 47.22 107.543 47.22 110.423C47.22 113.559 46.676 116.503 45.588 119.255C44.532 121.975 42.964 124.359 40.884 126.407C38.836 128.423 36.324 130.023 33.348 131.207C30.372 132.359 26.964 132.935 23.124 132.935C20.916 132.935 18.74 132.711 16.596 132.263C14.452 131.847 12.388 131.239 10.404 130.439C8.452 129.639 6.612 128.679 4.884 127.559C3.156 126.439 1.62 125.191 0.276 123.815L4.068 117.623C4.388 117.175 4.804 116.807 5.316 116.519C5.828 116.199 6.372 116.039 6.948 116.039C7.748 116.039 8.612 116.375 9.54 117.047C10.468 117.687 11.572 118.407 12.852 119.207C14.132 120.007 15.62 120.743 17.316 121.415C19.044 122.055 21.108 122.375 23.508 122.375C27.188 122.375 30.036 121.511 32.052 119.783C34.068 118.023 35.076 115.511 35.076 112.247C35.076 110.423 34.612 108.935 33.684 107.783C32.788 106.631 31.588 105.671 30.084 104.903C28.58 104.103 26.868 103.431 24.948 102.887C23.028 102.343 21.076 101.751 19.092 101.111C17.108 100.471 15.156 99.7027 13.236 98.8067C11.316 97.9107 9.604 96.7427 8.1 95.3027C6.596 93.8627 5.38 92.0707 4.452 89.9267C3.556 87.7507 3.108 85.0787 3.108 81.9107C3.108 79.3827 3.604 76.9187 4.596 74.5187C5.62 72.1187 7.092 69.9907 9.012 68.1347C10.932 66.2787 13.3 64.7907 16.116 63.6707C18.932 62.5507 22.164 61.9907 25.812 61.9907C29.908 61.9907 33.684 62.6307 37.14 63.9107C40.596 65.1907 43.54 66.9827 45.972 69.2867L42.756 75.3827Z" fill="white"/>
<path d="M71.4435 73.0307V92.2787H95.7315V102.215H71.4435V121.847H102.26V132.167H58.4835V62.7587H102.26V73.0307H71.4435Z" fill="white"/>
<path d="M150.374 105.959L141.926 82.8707C141.51 81.8467 141.078 80.6307 140.63 79.2227C140.182 77.8147 139.734 76.2947 139.286 74.6627C138.87 76.2947 138.438 77.8307 137.99 79.2707C137.542 80.6787 137.11 81.9107 136.694 82.9667L128.294 105.959H150.374ZM173.174 132.167H163.19C162.07 132.167 161.158 131.895 160.454 131.351C159.75 130.775 159.222 130.071 158.87 129.239L153.686 115.079H124.934L119.75 129.239C119.494 129.975 118.998 130.647 118.262 131.255C117.526 131.863 116.614 132.167 115.526 132.167H105.446L132.758 62.7587H145.91L173.174 132.167Z" fill="white"/>
<path d="M201.335 95.7827C203.767 95.7827 205.879 95.4787 207.671 94.8707C209.495 94.2627 210.983 93.4307 212.135 92.3747C213.319 91.2867 214.199 90.0067 214.775 88.5347C215.351 87.0627 215.639 85.4467 215.639 83.6867C215.639 80.1667 214.471 77.4627 212.135 75.5747C209.831 73.6867 206.295 72.7427 201.527 72.7427H193.271V95.7827H201.335ZM234.551 132.167H222.887C220.679 132.167 219.079 131.303 218.087 129.575L203.495 107.351C202.951 106.519 202.343 105.927 201.671 105.575C201.031 105.223 200.07 105.047 198.79 105.047H193.271V132.167H180.359V62.7587H201.527C206.231 62.7587 210.262 63.2547 213.622 64.2467C217.014 65.2067 219.782 66.5667 221.926 68.3267C224.102 70.0867 225.702 72.1987 226.727 74.6627C227.75 77.0947 228.262 79.7827 228.262 82.7267C228.262 85.0627 227.91 87.2707 227.206 89.3507C226.534 91.4307 225.542 93.3187 224.23 95.0147C222.951 96.7107 221.35 98.1987 219.43 99.4787C217.542 100.759 215.383 101.767 212.951 102.503C213.783 102.983 214.551 103.559 215.255 104.231C215.958 104.871 216.598 105.639 217.174 106.535L234.551 132.167Z" fill="white"/>
<path d="M288.772 115.799C289.476 115.799 290.1 116.071 290.645 116.615L295.733 122.135C292.917 125.623 289.444 128.295 285.316 130.151C281.22 132.007 276.293 132.935 270.533 132.935C265.381 132.935 260.74 132.055 256.612 130.295C252.516 128.535 249.012 126.087 246.1 122.951C243.188 119.815 240.948 116.071 239.38 111.719C237.844 107.367 237.077 102.615 237.077 97.4627C237.077 92.2467 237.908 87.4787 239.572 83.1587C241.236 78.8067 243.573 75.0627 246.581 71.9267C249.621 68.7907 253.236 66.3587 257.428 64.6307C261.62 62.8707 266.261 61.9907 271.349 61.9907C276.405 61.9907 280.885 62.8227 284.789 64.4867C288.725 66.1507 292.068 68.3267 294.82 71.0147L290.5 77.0147C290.244 77.3987 289.908 77.7347 289.492 78.0227C289.108 78.3107 288.565 78.4547 287.861 78.4547C287.381 78.4547 286.884 78.3267 286.372 78.0707C285.86 77.7827 285.301 77.4467 284.693 77.0627C284.085 76.6467 283.381 76.1987 282.581 75.7187C281.781 75.2387 280.853 74.8067 279.797 74.4227C278.741 74.0067 277.508 73.6707 276.1 73.4147C274.724 73.1267 273.125 72.9827 271.301 72.9827C268.197 72.9827 265.348 73.5427 262.757 74.6627C260.196 75.7507 257.989 77.3507 256.133 79.4627C254.277 81.5427 252.837 84.1027 251.812 87.1427C250.789 90.1507 250.277 93.5907 250.277 97.4627C250.277 101.367 250.82 104.839 251.908 107.879C253.028 110.919 254.533 113.479 256.421 115.559C258.309 117.639 260.532 119.239 263.092 120.359C265.653 121.447 268.405 121.991 271.349 121.991C273.109 121.991 274.692 121.895 276.1 121.703C277.54 121.511 278.852 121.207 280.036 120.791C281.252 120.375 282.389 119.847 283.445 119.207C284.533 118.535 285.604 117.719 286.66 116.759C286.98 116.471 287.316 116.247 287.668 116.087C288.02 115.895 288.388 115.799 288.772 115.799Z" fill="white"/>
<path d="M363.089 62.7587V132.167H350.129V101.831H317.537V132.167H304.577V62.7587H317.537V92.6147H350.129V62.7587H363.089Z" fill="white"/>
<path d="M3.24 147.383V152.519H9.744V155.099H3.24V162.167H0V144.815H10.944V147.383H3.24Z" fill="white"/>
<path d="M30.9377 153.491C30.9377 154.763 30.7257 155.943 30.3017 157.031C29.8857 158.111 29.2937 159.047 28.5257 159.839C27.7577 160.631 26.8337 161.251 25.7537 161.699C24.6737 162.139 23.4737 162.359 22.1537 162.359C20.8417 162.359 19.6457 162.139 18.5657 161.699C17.4857 161.251 16.5577 160.631 15.7817 159.839C15.0137 159.047 14.4177 158.111 13.9937 157.031C13.5697 155.943 13.3577 154.763 13.3577 153.491C13.3577 152.219 13.5697 151.043 13.9937 149.963C14.4177 148.875 15.0137 147.935 15.7817 147.143C16.5577 146.351 17.4857 145.735 18.5657 145.295C19.6457 144.847 20.8417 144.623 22.1537 144.623C23.0337 144.623 23.8617 144.727 24.6377 144.935C25.4137 145.135 26.1257 145.423 26.7737 145.799C27.4217 146.167 28.0017 146.619 28.5137 147.155C29.0337 147.683 29.4737 148.275 29.8337 148.931C30.1937 149.587 30.4657 150.299 30.6497 151.067C30.8417 151.835 30.9377 152.643 30.9377 153.491ZM27.6377 153.491C27.6377 152.539 27.5097 151.687 27.2537 150.935C26.9977 150.175 26.6337 149.531 26.1617 149.003C25.6897 148.475 25.1137 148.071 24.4337 147.791C23.7617 147.511 23.0017 147.371 22.1537 147.371C21.3057 147.371 20.5417 147.511 19.8617 147.791C19.1897 148.071 18.6137 148.475 18.1337 149.003C17.6617 149.531 17.2977 150.175 17.0417 150.935C16.7857 151.687 16.6577 152.539 16.6577 153.491C16.6577 154.443 16.7857 155.299 17.0417 156.059C17.2977 156.811 17.6617 157.451 18.1337 157.979C18.6137 158.499 19.1897 158.899 19.8617 159.179C20.5417 159.459 21.3057 159.599 22.1537 159.599C23.0017 159.599 23.7617 159.459 24.4337 159.179C25.1137 158.899 25.6897 158.499 26.1617 157.979C26.6337 157.451 26.9977 156.811 27.2537 156.059C27.5097 155.299 27.6377 154.443 27.6377 153.491Z" fill="white"/>
<path d="M39.9765 153.071C40.5845 153.071 41.1125 152.995 41.5605 152.843C42.0165 152.691 42.3885 152.483 42.6765 152.219C42.9725 151.947 43.1925 151.627 43.3365 151.259C43.4805 150.891 43.5525 150.487 43.5525 150.047C43.5525 149.167 43.2605 148.491 42.6765 148.019C42.1005 147.547 41.2165 147.311 40.0245 147.311H37.9605V153.071H39.9765ZM48.2805 162.167H45.3645C44.8125 162.167 44.4125 161.951 44.1645 161.519L40.5165 155.963C40.3805 155.755 40.2285 155.607 40.0605 155.519C39.9005 155.431 39.6605 155.387 39.3405 155.387H37.9605V162.167H34.7325V144.815H40.0245C41.2005 144.815 42.2085 144.939 43.0485 145.187C43.8965 145.427 44.5885 145.767 45.1245 146.207C45.6685 146.647 46.0685 147.175 46.3245 147.791C46.5805 148.399 46.7085 149.071 46.7085 149.807C46.7085 150.391 46.6205 150.943 46.4445 151.463C46.2765 151.983 46.0285 152.455 45.7005 152.879C45.3805 153.303 44.9805 153.675 44.5005 153.995C44.0285 154.315 43.4885 154.567 42.8805 154.751C43.0885 154.871 43.2805 155.015 43.4565 155.183C43.6325 155.343 43.7925 155.535 43.9365 155.759L48.2805 162.167Z" fill="white"/>
<path d="M64.4014 155.447V162.167H61.1854V155.447L54.8614 144.815H57.7054C57.9854 144.815 58.2054 144.883 58.3654 145.019C58.5334 145.155 58.6734 145.327 58.7854 145.535L61.9534 151.331C62.1374 151.675 62.2974 151.999 62.4334 152.303C62.5774 152.607 62.7054 152.911 62.8174 153.215C62.9214 152.911 63.0414 152.607 63.1774 152.303C63.3134 151.999 63.4694 151.675 63.6454 151.331L66.8014 145.535C66.8894 145.359 67.0214 145.195 67.1974 145.043C67.3734 144.891 67.5974 144.815 67.8694 144.815H70.7254L64.4014 155.447Z" fill="white"/>
<path d="M89.0121 153.491C89.0121 154.763 88.8001 155.943 88.3761 157.031C87.9601 158.111 87.3681 159.047 86.6001 159.839C85.8321 160.631 84.9081 161.251 83.8281 161.699C82.7481 162.139 81.5481 162.359 80.2281 162.359C78.9161 162.359 77.7201 162.139 76.6401 161.699C75.5601 161.251 74.6321 160.631 73.8561 159.839C73.0881 159.047 72.4921 158.111 72.0681 157.031C71.6441 155.943 71.4321 154.763 71.4321 153.491C71.4321 152.219 71.6441 151.043 72.0681 149.963C72.4921 148.875 73.0881 147.935 73.8561 147.143C74.6321 146.351 75.5601 145.735 76.6401 145.295C77.7201 144.847 78.9161 144.623 80.2281 144.623C81.1081 144.623 81.9361 144.727 82.7121 144.935C83.4881 145.135 84.2001 145.423 84.8481 145.799C85.4961 146.167 86.0761 146.619 86.5881 147.155C87.1081 147.683 87.5481 148.275 87.9081 148.931C88.2681 149.587 88.5401 150.299 88.7241 151.067C88.9161 151.835 89.0121 152.643 89.0121 153.491ZM85.7121 153.491C85.7121 152.539 85.5841 151.687 85.3281 150.935C85.0721 150.175 84.7081 149.531 84.2361 149.003C83.7641 148.475 83.1881 148.071 82.5081 147.791C81.8361 147.511 81.0761 147.371 80.2281 147.371C79.3801 147.371 78.6161 147.511 77.9361 147.791C77.2641 148.071 76.6881 148.475 76.2081 149.003C75.7361 149.531 75.3721 150.175 75.1161 150.935C74.8601 151.687 74.7321 152.539 74.7321 153.491C74.7321 154.443 74.8601 155.299 75.1161 156.059C75.3721 156.811 75.7361 157.451 76.2081 157.979C76.6881 158.499 77.2641 158.899 77.9361 159.179C78.6161 159.459 79.3801 159.599 80.2281 159.599C81.0761 159.599 81.8361 159.459 82.5081 159.179C83.1881 158.899 83.7641 158.499 84.2361 157.979C84.7081 157.451 85.0721 156.811 85.3281 156.059C85.5841 155.299 85.7121 154.443 85.7121 153.491Z" fill="white"/>
<path d="M99.7909 159.563C100.415 159.563 100.971 159.459 101.459 159.251C101.955 159.043 102.371 158.751 102.707 158.375C103.043 157.999 103.299 157.543 103.475 157.007C103.659 156.471 103.751 155.871 103.751 155.207V144.815H106.979V155.207C106.979 156.239 106.811 157.195 106.475 158.075C106.147 158.947 105.671 159.703 105.047 160.343C104.431 160.975 103.679 161.471 102.791 161.831C101.903 162.183 100.903 162.359 99.7909 162.359C98.6709 162.359 97.6669 162.183 96.7789 161.831C95.8909 161.471 95.1349 160.975 94.5109 160.343C93.8949 159.703 93.4189 158.947 93.0829 158.075C92.7549 157.195 92.5909 156.239 92.5909 155.207V144.815H95.8189V155.195C95.8189 155.859 95.9069 156.459 96.0829 156.995C96.2669 157.531 96.5269 157.991 96.8629 158.375C97.2069 158.751 97.6229 159.043 98.1109 159.251C98.6069 159.459 99.1669 159.563 99.7909 159.563Z" fill="white"/>
<path d="M116.823 153.071C117.431 153.071 117.959 152.995 118.407 152.843C118.863 152.691 119.235 152.483 119.523 152.219C119.819 151.947 120.039 151.627 120.183 151.259C120.327 150.891 120.399 150.487 120.399 150.047C120.399 149.167 120.107 148.491 119.523 148.019C118.947 147.547 118.063 147.311 116.871 147.311H114.807V153.071H116.823ZM125.127 162.167H122.211C121.659 162.167 121.259 161.951 121.011 161.519L117.363 155.963C117.227 155.755 117.075 155.607 116.907 155.519C116.747 155.431 116.507 155.387 116.187 155.387H114.807V162.167H111.579V144.815H116.871C118.047 144.815 119.055 144.939 119.895 145.187C120.743 145.427 121.435 145.767 121.971 146.207C122.515 146.647 122.915 147.175 123.171 147.791C123.427 148.399 123.555 149.071 123.555 149.807C123.555 150.391 123.467 150.943 123.291 151.463C123.123 151.983 122.875 152.455 122.547 152.879C122.227 153.303 121.827 153.675 121.347 153.995C120.875 154.315 120.335 154.567 119.727 154.751C119.935 154.871 120.127 155.015 120.303 155.183C120.479 155.343 120.639 155.535 120.783 155.759L125.127 162.167Z" fill="white"/>
<path d="M137.997 147.383V152.519H144.501V155.099H137.997V162.167H134.757V144.815H145.701V147.383H137.997Z" fill="white"/>
<path d="M157.049 155.615L154.937 149.843C154.833 149.587 154.725 149.283 154.613 148.931C154.501 148.579 154.389 148.199 154.277 147.791C154.173 148.199 154.065 148.583 153.953 148.943C153.841 149.295 153.733 149.603 153.629 149.867L151.529 155.615H157.049ZM162.749 162.167H160.253C159.973 162.167 159.745 162.099 159.569 161.963C159.393 161.819 159.261 161.643 159.173 161.435L157.877 157.895H150.689L149.393 161.435C149.329 161.619 149.205 161.787 149.021 161.939C148.837 162.091 148.609 162.167 148.337 162.167H145.817L152.645 144.815H155.933L162.749 162.167Z" fill="white"/>
<path d="M180.373 144.815L173.365 162.167H170.449L163.441 144.815H166.033C166.313 144.815 166.541 144.883 166.717 145.019C166.893 145.155 167.025 145.331 167.113 145.547L171.205 156.131C171.341 156.475 171.469 156.855 171.589 157.271C171.717 157.679 171.837 158.107 171.949 158.555C172.045 158.107 172.149 157.679 172.261 157.271C172.373 156.855 172.497 156.475 172.633 156.131L176.701 145.547C176.765 145.363 176.889 145.195 177.073 145.043C177.265 144.891 177.497 144.815 177.769 144.815H180.373Z" fill="white"/>
<path d="M199.115 153.491C199.115 154.763 198.903 155.943 198.479 157.031C198.063 158.111 197.471 159.047 196.703 159.839C195.935 160.631 195.011 161.251 193.931 161.699C192.851 162.139 191.651 162.359 190.331 162.359C189.019 162.359 187.823 162.139 186.743 161.699C185.663 161.251 184.735 160.631 183.959 159.839C183.191 159.047 182.595 158.111 182.171 157.031C181.747 155.943 181.535 154.763 181.535 153.491C181.535 152.219 181.747 151.043 182.171 149.963C182.595 148.875 183.191 147.935 183.959 147.143C184.735 146.351 185.663 145.735 186.743 145.295C187.823 144.847 189.019 144.623 190.331 144.623C191.211 144.623 192.039 144.727 192.815 144.935C193.591 145.135 194.303 145.423 194.951 145.799C195.599 146.167 196.179 146.619 196.691 147.155C197.211 147.683 197.651 148.275 198.011 148.931C198.371 149.587 198.643 150.299 198.827 151.067C199.019 151.835 199.115 152.643 199.115 153.491ZM195.815 153.491C195.815 152.539 195.687 151.687 195.431 150.935C195.175 150.175 194.811 149.531 194.339 149.003C193.867 148.475 193.291 148.071 192.611 147.791C191.939 147.511 191.179 147.371 190.331 147.371C189.483 147.371 188.719 147.511 188.039 147.791C187.367 148.071 186.791 148.475 186.311 149.003C185.839 149.531 185.475 150.175 185.219 150.935C184.963 151.687 184.835 152.539 184.835 153.491C184.835 154.443 184.963 155.299 185.219 156.059C185.475 156.811 185.839 157.451 186.311 157.979C186.791 158.499 187.367 158.899 188.039 159.179C188.719 159.459 189.483 159.599 190.331 159.599C191.179 159.599 191.939 159.459 192.611 159.179C193.291 158.899 193.867 158.499 194.339 157.979C194.811 157.451 195.175 156.811 195.431 156.059C195.687 155.299 195.815 154.443 195.815 153.491Z" fill="white"/>
<path d="M209.894 159.563C210.518 159.563 211.074 159.459 211.562 159.251C212.058 159.043 212.474 158.751 212.81 158.375C213.146 157.999 213.402 157.543 213.578 157.007C213.762 156.471 213.854 155.871 213.854 155.207V144.815H217.082V155.207C217.082 156.239 216.914 157.195 216.578 158.075C216.25 158.947 215.774 159.703 215.15 160.343C214.534 160.975 213.782 161.471 212.894 161.831C212.006 162.183 211.006 162.359 209.894 162.359C208.774 162.359 207.77 162.183 206.882 161.831C205.994 161.471 205.238 160.975 204.614 160.343C203.998 159.703 203.522 158.947 203.186 158.075C202.858 157.195 202.694 156.239 202.694 155.207V144.815H205.922V155.195C205.922 155.859 206.01 156.459 206.186 156.995C206.37 157.531 206.63 157.991 206.966 158.375C207.31 158.751 207.726 159.043 208.214 159.251C208.71 159.459 209.27 159.563 209.894 159.563Z" fill="white"/>
<path d="M226.926 153.071C227.534 153.071 228.062 152.995 228.51 152.843C228.966 152.691 229.338 152.483 229.626 152.219C229.922 151.947 230.142 151.627 230.286 151.259C230.43 150.891 230.502 150.487 230.502 150.047C230.502 149.167 230.21 148.491 229.626 148.019C229.05 147.547 228.166 147.311 226.974 147.311H224.91V153.071H226.926ZM235.23 162.167H232.314C231.762 162.167 231.362 161.951 231.114 161.519L227.466 155.963C227.33 155.755 227.178 155.607 227.01 155.519C226.85 155.431 226.61 155.387 226.29 155.387H224.91V162.167H221.682V144.815H226.974C228.15 144.815 229.158 144.939 229.998 145.187C230.846 145.427 231.538 145.767 232.074 146.207C232.618 146.647 233.018 147.175 233.274 147.791C233.53 148.399 233.658 149.071 233.658 149.807C233.658 150.391 233.57 150.943 233.394 151.463C233.226 151.983 232.978 152.455 232.65 152.879C232.33 153.303 231.93 153.675 231.45 153.995C230.978 154.315 230.438 154.567 229.83 154.751C230.038 154.871 230.23 155.015 230.406 155.183C230.582 155.343 230.742 155.535 230.886 155.759L235.23 162.167Z" fill="white"/>
<path d="M241.304 162.167H238.064V144.815H241.304V162.167Z" fill="white"/>
<path d="M258.269 147.467H253.037V162.167H249.809V147.467H244.577V144.815H258.269V147.467Z" fill="white"/>
<path d="M264.74 147.383V152.195H270.812V154.679H264.74V159.587H272.444V162.167H261.5V144.815H272.444V147.383H264.74Z" fill="white"/>
<path d="M288.304 153.071C288.912 153.071 289.44 152.995 289.888 152.843C290.344 152.691 290.716 152.483 291.004 152.219C291.3 151.947 291.52 151.627 291.664 151.259C291.808 150.891 291.88 150.487 291.88 150.047C291.88 149.167 291.588 148.491 291.004 148.019C290.428 147.547 289.544 147.311 288.352 147.311H286.288V153.071H288.304ZM296.608 162.167H293.692C293.14 162.167 292.74 161.951 292.492 161.519L288.844 155.963C288.708 155.755 288.556 155.607 288.388 155.519C288.228 155.431 287.988 155.387 287.668 155.387H286.288V162.167H283.06V144.815H288.352C289.528 144.815 290.536 144.939 291.376 145.187C292.224 145.427 292.916 145.767 293.452 146.207C293.996 146.647 294.396 147.175 294.652 147.791C294.908 148.399 295.036 149.071 295.036 149.807C295.036 150.391 294.948 150.943 294.772 151.463C294.604 151.983 294.356 152.455 294.028 152.879C293.708 153.303 293.308 153.675 292.828 153.995C292.356 154.315 291.816 154.567 291.208 154.751C291.416 154.871 291.608 155.015 291.784 155.183C291.96 155.343 292.12 155.535 292.264 155.759L296.608 162.167Z" fill="white"/>
<path d="M302.682 147.383V152.195H308.754V154.679H302.682V159.587H310.386V162.167H299.442V144.815H310.386V147.383H302.682Z" fill="white"/>
<path d="M325.748 158.075C325.924 158.075 326.08 158.143 326.216 158.279L327.488 159.659C326.784 160.531 325.916 161.199 324.884 161.663C323.86 162.127 322.628 162.359 321.188 162.359C319.9 162.359 318.74 162.139 317.708 161.699C316.684 161.259 315.808 160.647 315.08 159.863C314.352 159.079 313.792 158.143 313.4 157.055C313.016 155.967 312.824 154.779 312.824 153.491C312.824 152.187 313.032 150.995 313.448 149.915C313.864 148.827 314.448 147.891 315.2 147.107C315.96 146.323 316.864 145.715 317.912 145.283C318.96 144.843 320.12 144.623 321.392 144.623C322.656 144.623 323.776 144.831 324.752 145.247C325.736 145.663 326.572 146.207 327.26 146.879L326.18 148.379C326.116 148.475 326.032 148.559 325.928 148.631C325.832 148.703 325.696 148.739 325.52 148.739C325.4 148.739 325.276 148.707 325.148 148.643C325.02 148.571 324.88 148.487 324.728 148.391C324.576 148.287 324.4 148.175 324.2 148.055C324 147.935 323.768 147.827 323.504 147.731C323.24 147.627 322.932 147.543 322.58 147.479C322.236 147.407 321.836 147.371 321.38 147.371C320.604 147.371 319.892 147.511 319.244 147.791C318.604 148.063 318.052 148.463 317.588 148.991C317.124 149.511 316.764 150.151 316.508 150.911C316.252 151.663 316.124 152.523 316.124 153.491C316.124 154.467 316.26 155.335 316.532 156.095C316.812 156.855 317.188 157.495 317.66 158.015C318.132 158.535 318.688 158.935 319.328 159.215C319.968 159.487 320.656 159.623 321.392 159.623C321.832 159.623 322.228 159.599 322.58 159.551C322.94 159.503 323.268 159.427 323.564 159.323C323.868 159.219 324.152 159.087 324.416 158.927C324.688 158.759 324.956 158.555 325.22 158.315C325.3 158.243 325.384 158.187 325.472 158.147C325.56 158.099 325.652 158.075 325.748 158.075Z" fill="white"/>
<path d="M333.899 162.167H330.659V144.815H333.899V162.167Z" fill="white"/>
<path d="M344.384 153.539C344.976 153.539 345.492 153.467 345.932 153.323C346.372 153.171 346.736 152.959 347.024 152.687C347.32 152.407 347.54 152.071 347.684 151.679C347.828 151.279 347.9 150.835 347.9 150.347C347.9 149.883 347.828 149.463 347.684 149.087C347.54 148.711 347.324 148.391 347.036 148.127C346.748 147.863 346.384 147.663 345.944 147.527C345.504 147.383 344.984 147.311 344.384 147.311H341.972V153.539H344.384ZM344.384 144.815C345.544 144.815 346.548 144.951 347.396 145.223C348.244 145.495 348.944 145.875 349.496 146.363C350.048 146.851 350.456 147.435 350.72 148.115C350.992 148.795 351.128 149.539 351.128 150.347C351.128 151.187 350.988 151.959 350.708 152.663C350.428 153.359 350.008 153.959 349.448 154.463C348.888 154.967 348.184 155.359 347.336 155.639C346.496 155.919 345.512 156.059 344.384 156.059H341.972V162.167H338.744V144.815H344.384Z" fill="white"/>
<path d="M357.803 147.383V152.195H363.875V154.679H357.803V159.587H365.507V162.167H354.563V144.815H365.507V147.383H357.803Z" fill="white"/>
<path d="M97.4027 16.3233C97.7444 16.3103 98.0866 16.3176 98.4275 16.345C99.3918 16.4127 100.323 16.7227 101.136 17.2463C102.102 17.8942 102.83 18.8865 103.153 20.2082C103.465 21.4865 103.333 22.6998 102.767 23.7658C102.232 24.7777 101.402 25.4753 100.622 25.9585C99.4762 26.667 98.0938 27.109 97.0387 27.4037L94.716 31.4228C96.2121 32.641 97.4179 34.1774 98.2454 35.9202C99.073 37.6631 99.5016 39.5685 99.5 41.4978C99.504 44.6963 98.3248 47.7833 96.1893 50.1645H101.667V54.4978H58.3333V50.1645H64.2007C61.5599 47.8355 59.691 44.7576 58.8428 41.3402C57.9945 37.9229 58.2071 34.3282 59.4523 31.0347C60.6975 27.7412 62.9162 24.905 65.8131 22.9036C68.71 20.9022 72.1478 19.8305 75.6688 19.8312H82.1667V24.1645H75.6688C72.221 24.1642 68.9143 25.5336 66.4761 27.9713C64.038 30.4091 62.668 33.7156 62.6678 37.1634C62.6675 40.6112 64.0368 43.9179 66.4746 46.3561C68.9124 48.7943 72.2189 50.1642 75.6667 50.1645H86.5C87.6771 50.164 88.8418 49.9237 89.923 49.4583C91.0042 48.9929 91.9792 48.3122 92.7887 47.4576C93.5981 46.603 94.225 45.5924 94.631 44.4876C95.0371 43.3827 95.2139 42.2067 95.1505 41.0313C95.0871 39.8559 94.785 38.7058 94.2625 37.651C93.74 36.5962 93.0082 35.6589 92.1115 34.8962C91.2149 34.1336 90.1723 33.5616 89.0474 33.2151C87.9224 32.8686 86.7387 32.755 85.5683 32.881C83.4383 33.0981 81.4657 34.1012 80.0355 35.6945C78.6053 37.2878 77.8201 39.3568 77.8333 41.4978V43.6645H73.5V41.4978C73.4879 38.4424 74.5568 35.4811 76.5175 33.1378C78.4783 30.7944 81.2045 29.2199 84.2142 28.6928L87.9798 22.1733C87.7047 21.1117 87.3948 19.6947 87.436 18.3492C87.462 17.4305 87.6527 16.3645 88.2615 15.396C88.9028 14.3777 89.8887 13.6562 91.1453 13.2835C92.454 12.8978 93.6803 13.0235 94.729 13.5392C95.7213 14.0245 96.4103 14.7807 96.8697 15.4393C97.064 15.7232 97.2434 16.0184 97.4027 16.3233ZM89.1715 28.773C89.7782 28.9001 90.3704 29.0691 90.9482 29.28L94.183 23.6835L95.0497 23.4517C96.2847 23.1202 97.4958 22.7952 98.3408 22.273C98.733 22.0303 98.8825 21.8397 98.9367 21.7378C98.9605 21.6923 99.0233 21.5732 98.941 21.2395C98.8695 20.947 98.772 20.8798 98.7222 20.8473C98.515 20.7344 98.2842 20.6713 98.0483 20.6632C97.562 20.6247 97.0727 20.6687 96.601 20.7932L94.456 21.4063L93.9187 19.2353V19.231L93.897 19.1552C93.7625 18.7168 93.5655 18.3001 93.312 17.918C93.1885 17.72 93.0209 17.5532 92.8223 17.4305C92.7703 17.4067 92.6642 17.3525 92.3738 17.4392C92.0315 17.541 91.9578 17.6558 91.9275 17.7035C91.869 17.7988 91.778 18.022 91.765 18.4792C91.7347 19.4585 92.0553 20.6523 92.3868 21.8938L92.6252 22.7865L89.1715 28.773Z" fill="#F8F8F8"/>
</svg>
